<svg xmlns="http://www.w3.org/2000/svg" xmlns:xlink="http://www.w3.org/1999/xlink" version="1.0" x="0px" y="0px" viewBox="0 0 100 100" enable-background="new 0 0 100 100" xml:space="preserve"><path d="M10,20v60h80V20H10z M12,78V28h76v50H12z"></path><g><polygon fill="#000000" points="17,26 14,24 17,22  "></polygon></g><g><polygon fill="#000000" points="20,22 23,24 20,26  "></polygon></g><g><rect x="16" y="64" width="25" height="8"></rect></g><g><rect x="45" y="35" width="16" height="2"></rect></g><g><rect x="45" y="43" width="16" height="2"></rect></g><g><rect x="45" y="39" width="39" height="2"></rect></g><g><rect x="45" y="54" width="16" height="2"></rect></g><g><rect x="45" y="62" width="39" height="2"></rect></g><g><rect x="45" y="58" width="30" height="2"></rect></g><g><rect x="45" y="70" width="20" height="2"></rect></g><g><rect x="45" y="66" width="35" height="2"></rect></g><g><polygon points="17.527,33 28.486,44.999 39.563,33  "></polygon><polygon points="27.125,46.474 16,34.292 16,58.525  "></polygon><polygon points="41,34.391 29.84,46.481 41,58.699  "></polygon><polygon points="40.833,60 41,60 41,59.848  "></polygon><polygon points="28.479,47.956 17.361,60 39.479,60  "></polygon></g></svg>