<svg xmlns="http://www.w3.org/2000/svg" viewBox="0 0 615.86 146.23"><defs><style>.cls-1{fill:#fff;}</style></defs><title>logo</title><g id="Layer_2" data-name="Layer 2"><g id="Layer_1-2" data-name="Layer 1"><path class="cls-1" d="M43.16,0A109.82,109.82,0,0,1,71.49,4.2V21.12H64.67c-3.8-7.87-8.92-11.94-22.56-11.94-15.74,0-29.78,11-29.78,40.14s14.3,39.09,31.61,39.09c13.9,0,16.92-4.07,20.73-11.94h6.82V93.4a109.82,109.82,0,0,1-28.33,4.2C18,97.6,0,83.43,0,48.67S18,0,43.16,0Z"/><path class="cls-1" d="M119,23.61c17.84,0,34.76,9.58,34.76,37s-16.92,37-34.76,37-34.76-9.31-34.76-37S101.14,23.61,119,23.61Zm0,65.59c16.53,0,23.22-11.54,23.22-28.6S135.5,32,119,32,96,43.55,96,60.6,102.58,89.2,119,89.2Z"/><path class="cls-1" d="M174.33,35.81c0-3-1.57-3.15-3.54-3.15H165V25.45h20.73v8c7.87-5.38,17.58-9.71,26.89-9.71,10.76,0,20.2,5.64,20.2,20.6V85.66c0,3,1.57,3.15,3.54,3.15h5.77V96H212.37V88.81h9.18V47.49c0-10-4.85-14-14.17-14-6.56,0-15.61,3.8-21.78,7.74V88.81h9.31V96H165.15V88.81h5.64c2,0,3.54-.13,3.54-3.15Z"/><path class="cls-1" d="M269.3,77.66c0,7.87,4.46,10.76,10.89,10.76a42.56,42.56,0,0,0,11.41-2v8.92a52.25,52.25,0,0,1-15,2.23c-10,0-18.5-4.72-18.5-18.63V34h-8.66v-5.9C258,25.32,261.17,18,262.87,8.53h6.43V25.45h23.48V34H269.3Z"/><path class="cls-1" d="M309.57,35.81c0-3-1.57-3.15-3.54-3.15h-5.77V25.45h20.2V39.22c12.86-13,24.66-15.48,24.66-15.48v14C329,40.67,320.85,45,320.85,45V88.81h9.31V96H300.39V88.81H306c2,0,3.54-.13,3.54-3.15Z"/><path class="cls-1" d="M397.2,55.49V46.18c0-7.61-4.85-14.43-15.74-14.43-5.12,0-15.48.39-18.37,11.54h-5.77V27.81c7.35-2.1,16.14-4.2,24.4-4.2,14.3,0,26.76,5.64,26.76,24.79v35c0,3.15,1.57,5.38,5.38,5.38h3.8v7a29,29,0,0,1-7.74,1c-5.51,0-10.89-1.31-11.94-8a41.12,41.12,0,0,1-23.74,8.13c-10.63,0-21.38-6.56-21.38-20.33,0-11.68,9.05-21.12,27.81-21.12Zm0,7.87H381.85c-9.31,0-17.32,2.75-17.32,12.86,0,8.79,6,11.81,13.25,11.81,7,0,14.82-3.41,19.42-7Z"/><path class="cls-1" d="M444.16,77.66c0,7.87,4.46,10.76,10.89,10.76a42.56,42.56,0,0,0,11.41-2v8.92a52.25,52.25,0,0,1-15,2.23c-10,0-18.5-4.72-18.5-18.63V34h-8.66v-5.9C432.87,25.32,436,18,437.73,8.53h6.43V25.45h23.48V34H444.16Z"/><path class="cls-1" d="M519.58,55.49V46.18c0-7.61-4.85-14.43-15.74-14.43-5.12,0-15.48.39-18.37,11.54H479.7V27.81c7.35-2.1,16.14-4.2,24.4-4.2,14.3,0,26.76,5.64,26.76,24.79v35c0,3.15,1.57,5.38,5.38,5.38H540v7a29,29,0,0,1-7.74,1c-5.51,0-10.89-1.31-11.94-8a41.12,41.12,0,0,1-23.74,8.13c-10.63,0-21.38-6.56-21.38-20.33,0-11.68,9.05-21.12,27.81-21.12Zm0,7.87H504.23c-9.31,0-17.32,2.75-17.32,12.86C486.92,85,493,88,500.17,88c7,0,14.82-3.41,19.42-7Z"/><path class="cls-1" d="M568.25,32.66l14.56,20.73L596.32,34.5a1,1,0,0,0,.26-.79c0-.66-.39-1-1.57-1h-6.82V25.45h26.76v7.21h-6.69L588.45,60.21l20.73,28.6h6.69V96H588.19V88.81h7.48L580.18,67.43,565.88,87a1.41,1.41,0,0,0-.39.92c0,.52.52.92,1.71.92h6V96H545.42V88.81H553l21.38-28.47L554.34,32.66H547V25.45h27.68v7.21Z"/><path d="M109.68,127.73h-9.43v8.75h10.51v2.63H97.12V114.84h13.1v2.63h-10v7.67h9.43Z"/><path d="M116.2,121.68l2.48,3.74c.65,1,1.19,1.87,1.76,2.84h.11c.58-1,1.15-1.94,1.73-2.88l2.45-3.71h3.42l-5.94,8.42,6.12,9h-3.6l-2.56-3.92c-.68-1-1.26-2-1.87-3h-.07c-.58,1-1.19,2-1.84,3l-2.52,3.92h-3.49l6.19-8.89-5.9-8.53Z"/><path d="M131.39,127.37c0-2.23-.07-4-.14-5.69h2.84l.14,3h.07a6.85,6.85,0,0,1,6.19-3.38c4.21,0,7.38,3.56,7.38,8.86,0,6.26-3.82,9.36-7.92,9.36a6.11,6.11,0,0,1-5.36-2.74h-.07v9.47h-3.13Zm3.13,4.64a7.12,7.12,0,0,0,.14,1.3,4.89,4.89,0,0,0,4.75,3.71c3.35,0,5.29-2.74,5.29-6.73,0-3.49-1.84-6.48-5.18-6.48a5.06,5.06,0,0,0-4.79,3.92,5.15,5.15,0,0,0-.22,1.3Z"/><path d="M153.64,131c.07,4.28,2.81,6,6,6a11.45,11.45,0,0,0,4.82-.9l.54,2.27a14.11,14.11,0,0,1-5.8,1.08c-5.36,0-8.57-3.53-8.57-8.78s3.1-9.4,8.17-9.4c5.69,0,7.2,5,7.2,8.21a11.93,11.93,0,0,1-.11,1.48Zm9.29-2.27c0-2-.83-5.15-4.39-5.15-3.2,0-4.61,3-4.86,5.15Z"/><path d="M169.91,127.12c0-2.05,0-3.82-.14-5.44h2.77l.11,3.42h.14a5.23,5.23,0,0,1,4.82-3.82,3.46,3.46,0,0,1,.9.11v3a4.8,4.8,0,0,0-1.08-.11c-2.23,0-3.82,1.69-4.25,4.07a8.9,8.9,0,0,0-.14,1.48v9.29h-3.13Z"/><path d="M186.36,116.68v5h4.54v2.41h-4.54v9.39c0,2.16.61,3.38,2.38,3.38a7.08,7.08,0,0,0,1.84-.21l.14,2.38a7.76,7.76,0,0,1-2.81.43,4.39,4.39,0,0,1-3.42-1.33c-.9-.94-1.22-2.48-1.22-4.54v-9.5h-2.7v-2.41h2.7V117.5Z"/><path d="M211.74,139.1l-.25-2.2h-.11a6.49,6.49,0,0,1-5.33,2.59,5,5,0,0,1-5.33-5c0-4.21,3.74-6.52,10.47-6.48v-.36c0-1.44-.4-4-4-4a8.67,8.67,0,0,0-4.54,1.3l-.72-2.09a10.81,10.81,0,0,1,5.72-1.55c5.33,0,6.62,3.64,6.62,7.13v6.51a24.55,24.55,0,0,0,.29,4.18Zm-.47-8.89c-3.46-.07-7.38.54-7.38,3.92a2.8,2.8,0,0,0,3,3,4.34,4.34,0,0,0,4.21-2.92,3.31,3.31,0,0,0,.18-1Z"/><path d="M231.86,138.45a11.66,11.66,0,0,1-5,1c-5.26,0-8.67-3.56-8.67-8.89s3.67-9.25,9.36-9.25a10.58,10.58,0,0,1,4.39.9l-.72,2.45a7.34,7.34,0,0,0-3.67-.83c-4,0-6.16,3-6.16,6.59,0,4,2.59,6.51,6,6.51a9,9,0,0,0,3.89-.86Z"/><path d="M247.77,138.45a11.66,11.66,0,0,1-5,1c-5.26,0-8.67-3.56-8.67-8.89s3.67-9.25,9.36-9.25a10.58,10.58,0,0,1,4.39.9l-.72,2.45a7.34,7.34,0,0,0-3.67-.83c-4,0-6.16,3-6.16,6.59,0,4,2.59,6.51,6,6.51a9,9,0,0,0,3.89-.86Z"/><path d="M267,130.25c0,6.44-4.46,9.25-8.67,9.25-4.72,0-8.35-3.46-8.35-9,0-5.83,3.82-9.25,8.64-9.25C263.65,121.28,267,124.92,267,130.25Zm-13.82.18c0,3.82,2.2,6.69,5.29,6.69s5.29-2.84,5.29-6.77c0-3-1.48-6.69-5.22-6.69S253.21,127.12,253.21,130.43Z"/><path d="M285.61,134.35c0,1.8,0,3.38.14,4.75h-2.81l-.18-2.84h-.07a6.55,6.55,0,0,1-5.76,3.24c-2.74,0-6-1.51-6-7.63V121.68h3.17v9.65c0,3.31,1,5.54,3.89,5.54a4.46,4.46,0,0,0,4.46-4.5V121.68h3.17Z"/><path d="M290.87,126.39c0-1.8,0-3.28-.14-4.71h2.81l.18,2.88h.07a6.41,6.41,0,0,1,5.76-3.28c2.41,0,6.16,1.44,6.16,7.42v10.4h-3.17v-10c0-2.81-1-5.15-4-5.15a4.5,4.5,0,0,0-4.25,3.24,4.55,4.55,0,0,0-.22,1.48V139.1h-3.17Z"/><path d="M314.52,116.68v5h4.54v2.41h-4.54v9.39c0,2.16.61,3.38,2.38,3.38a7.08,7.08,0,0,0,1.83-.21l.14,2.38a7.76,7.76,0,0,1-2.81.43,4.39,4.39,0,0,1-3.42-1.33c-.9-.94-1.22-2.48-1.22-4.54v-9.5h-2.7v-2.41h2.7V117.5Z"/><path d="M332.26,139.1l-.25-2.2h-.11a6.49,6.49,0,0,1-5.33,2.59,5,5,0,0,1-5.33-5c0-4.21,3.74-6.52,10.47-6.48v-.36c0-1.44-.4-4-4-4a8.67,8.67,0,0,0-4.54,1.3l-.72-2.09a10.81,10.81,0,0,1,5.72-1.55c5.33,0,6.62,3.64,6.62,7.13v6.51a24.55,24.55,0,0,0,.29,4.18Zm-.47-8.89c-3.46-.07-7.38.54-7.38,3.92a2.8,2.8,0,0,0,3,3,4.34,4.34,0,0,0,4.21-2.92,3.32,3.32,0,0,0,.18-1Z"/><path d="M340,126.39c0-1.8,0-3.28-.14-4.71h2.81l.18,2.88h.07a6.41,6.41,0,0,1,5.76-3.28c2.41,0,6.16,1.44,6.16,7.42v10.4h-3.17v-10c0-2.81-1-5.15-4-5.15a4.5,4.5,0,0,0-4.25,3.24,4.55,4.55,0,0,0-.22,1.48V139.1H340Z"/><path d="M363.62,116.68v5h4.54v2.41h-4.54v9.39c0,2.16.61,3.38,2.38,3.38a7.08,7.08,0,0,0,1.83-.21L368,139a7.76,7.76,0,0,1-2.81.43,4.39,4.39,0,0,1-3.42-1.33c-.9-.94-1.22-2.48-1.22-4.54v-9.5h-2.7v-2.41h2.7V117.5Z"/><path d="M371.29,135.86a8.29,8.29,0,0,0,4.18,1.26c2.3,0,3.38-1.15,3.38-2.59s-.9-2.34-3.24-3.2c-3.13-1.12-4.61-2.84-4.61-4.93,0-2.81,2.27-5.11,6-5.11a8.69,8.69,0,0,1,4.28,1.08l-.79,2.3a6.77,6.77,0,0,0-3.56-1c-1.87,0-2.92,1.08-2.92,2.38s1,2.09,3.31,3c3,1.15,4.57,2.66,4.57,5.26,0,3.06-2.38,5.22-6.52,5.22a9.92,9.92,0,0,1-4.89-1.19Z"/><path d="M393.93,139.1v-15h-2.45v-2.41h2.45v-.83c0-2.45.54-4.68,2-6.08a6.06,6.06,0,0,1,4.25-1.62,7.34,7.34,0,0,1,2.7.5l-.43,2.45a4.73,4.73,0,0,0-2-.4c-2.7,0-3.38,2.38-3.38,5v.94h4.21v2.41h-4.21v15Z"/><path d="M419.42,130.25c0,6.44-4.46,9.25-8.67,9.25-4.72,0-8.35-3.46-8.35-9,0-5.83,3.82-9.25,8.64-9.25C416,121.28,419.42,124.92,419.42,130.25Zm-13.82.18c0,3.82,2.2,6.69,5.29,6.69s5.29-2.84,5.29-6.77c0-3-1.48-6.69-5.22-6.69S405.6,127.12,405.6,130.43Z"/><path d="M423.42,127.12c0-2.05,0-3.82-.14-5.44H426l.11,3.42h.14a5.23,5.23,0,0,1,4.82-3.82,3.46,3.46,0,0,1,.9.11v3a4.8,4.8,0,0,0-1.08-.11c-2.23,0-3.82,1.69-4.25,4.07a8.9,8.9,0,0,0-.14,1.48v9.29h-3.13Z"/><path d="M455.24,138.45a11.66,11.66,0,0,1-5,1c-5.26,0-8.67-3.56-8.67-8.89s3.67-9.25,9.36-9.25a10.58,10.58,0,0,1,4.39.9l-.72,2.45a7.34,7.34,0,0,0-3.67-.83c-4,0-6.16,3-6.16,6.59,0,4,2.59,6.51,6,6.51a9,9,0,0,0,3.89-.86Z"/><path d="M474.5,130.25c0,6.44-4.46,9.25-8.67,9.25-4.72,0-8.35-3.46-8.35-9,0-5.83,3.82-9.25,8.64-9.25C471.11,121.28,474.5,124.92,474.5,130.25Zm-13.82.18c0,3.82,2.2,6.69,5.29,6.69s5.29-2.84,5.29-6.77c0-3-1.48-6.69-5.22-6.69S460.68,127.12,460.68,130.43Z"/><path d="M478.5,126.39c0-1.8,0-3.28-.14-4.71h2.81l.18,2.88h.07a6.41,6.41,0,0,1,5.76-3.28c2.41,0,6.16,1.44,6.16,7.42v10.4h-3.17v-10c0-2.81-1-5.15-4-5.15a4.5,4.5,0,0,0-4.25,3.24,4.55,4.55,0,0,0-.22,1.48V139.1H478.5Z"/><path d="M502.15,116.68v5h4.54v2.41h-4.54v9.39c0,2.16.61,3.38,2.38,3.38a7.08,7.08,0,0,0,1.83-.21l.14,2.38a7.76,7.76,0,0,1-2.81.43,4.39,4.39,0,0,1-3.42-1.33c-.9-.94-1.22-2.48-1.22-4.54v-9.5h-2.7v-2.41h2.7V117.5Z"/><path d="M510.25,127.12c0-2.05,0-3.82-.14-5.44h2.77l.11,3.42h.14a5.23,5.23,0,0,1,4.82-3.82,3.46,3.46,0,0,1,.9.11v3a4.8,4.8,0,0,0-1.08-.11c-2.23,0-3.82,1.69-4.25,4.07a8.9,8.9,0,0,0-.14,1.48v9.29h-3.13Z"/><path d="M531.49,139.1l-.25-2.2h-.11a6.49,6.49,0,0,1-5.33,2.59,5,5,0,0,1-5.33-5c0-4.21,3.74-6.52,10.47-6.48v-.36c0-1.44-.4-4-4-4a8.67,8.67,0,0,0-4.54,1.3l-.72-2.09a10.81,10.81,0,0,1,5.72-1.55c5.33,0,6.62,3.64,6.62,7.13v6.51a24.55,24.55,0,0,0,.29,4.18Zm-.47-8.89c-3.46-.07-7.38.54-7.38,3.92a2.8,2.8,0,0,0,3,3,4.34,4.34,0,0,0,4.21-2.92,3.32,3.32,0,0,0,.18-1Z"/><path d="M551.61,138.45a11.66,11.66,0,0,1-5,1c-5.26,0-8.67-3.56-8.67-8.89s3.67-9.25,9.36-9.25a10.58,10.58,0,0,1,4.39.9l-.72,2.45a7.34,7.34,0,0,0-3.67-.83c-4,0-6.16,3-6.16,6.59,0,4,2.59,6.51,6,6.51a9,9,0,0,0,3.89-.86Z"/><path d="M559.6,116.68v5h4.54v2.41H559.6v9.39c0,2.16.61,3.38,2.38,3.38a7.08,7.08,0,0,0,1.83-.21L564,139a7.76,7.76,0,0,1-2.81.43,4.39,4.39,0,0,1-3.42-1.33c-.9-.94-1.22-2.48-1.22-4.54v-9.5h-2.7v-2.41h2.7V117.5Z"/><path d="M583.25,130.25c0,6.44-4.46,9.25-8.67,9.25-4.72,0-8.35-3.46-8.35-9,0-5.83,3.82-9.25,8.64-9.25C579.87,121.28,583.25,124.92,583.25,130.25Zm-13.82.18c0,3.82,2.2,6.69,5.29,6.69s5.29-2.84,5.29-6.77c0-3-1.48-6.69-5.22-6.69S569.43,127.12,569.43,130.43Z"/><path d="M587.25,127.12c0-2.05,0-3.82-.14-5.44h2.77l.11,3.42h.14a5.23,5.23,0,0,1,4.82-3.82,3.46,3.46,0,0,1,.9.11v3a4.8,4.8,0,0,0-1.08-.11c-2.23,0-3.82,1.69-4.25,4.07a8.9,8.9,0,0,0-.14,1.48v9.29h-3.13Z"/><path d="M598.59,135.86a8.29,8.29,0,0,0,4.18,1.26c2.3,0,3.38-1.15,3.38-2.59s-.9-2.34-3.24-3.2c-3.13-1.12-4.61-2.84-4.61-4.93,0-2.81,2.27-5.11,6-5.11a8.69,8.69,0,0,1,4.28,1.08l-.79,2.3a6.77,6.77,0,0,0-3.56-1c-1.87,0-2.92,1.08-2.92,2.38s1,2.09,3.31,3c3,1.15,4.57,2.66,4.57,5.26,0,3.06-2.38,5.22-6.52,5.22a9.92,9.92,0,0,1-4.89-1.19Z"/></g></g></svg>