<?xml version="1.0" encoding="UTF-8"?>
<svg width="60px" height="82px" viewBox="0 0 60 82" version="1.1" xmlns="http://www.w3.org/2000/svg" xmlns:xlink="http://www.w3.org/1999/xlink">
    <title>Shape</title>
    <g id="Page-1" stroke="none" stroke-width="1" fill="none" fill-rule="evenodd">
        <path d="M7.0876,10.5025 L20.1637,3.77134 C20.306615,5.37411 20.591262,6.66388 21.080243,7.50483 L21.968439,7.174119 L15.162869,10.107999 C12.286859,11.632819 10.002589,14.462759 9.866769,17.635219 C9.741571,20.573829 10.072282,22.399819 10.577798,25.317169 C11.430561,30.235319 11.264024,30.191619 11.238039,34.984569 C7.648639,33.992435 4.030899,33.159749 0.303339,32.539669 L4.327389,13.986769 L7.087649,10.502489 L7.0876,10.5025 Z M37.539,2.44378 C34.73977,1.07369 26.0858,0.9107 22.8861,2.176849 C22.601452,3.956789 23.054999,5.159159 23.97036,6.310739 L22.28846,7.035942 C21.637667,6.328456 21.25144,5.057582 21.12861,3.224492 C22.71248,-0.369628 37.39961,-0.237348 39.05551,3.497329 C38.903147,5.028049 38.544089,6.117039 37.97597,6.764279 L36.50312,6.130022 C37.34289,5.018592 37.85667,3.940242 37.53895,2.443772 L37.539,2.44378 Z M36.37324,6.296519 L45.04496,10.03479 C46.52489,10.866293 47.61033,12.01551 48.37569,13.31474 C49.275697,14.83956 49.73515,16.57343 49.87806,18.2447 L49.87806,18.2447 C50.128456,21.79276 49.143409,25.43295 48.67687,28.9609 L48.6638778,28.755387 L46.7386678,40.716487 L47.7650578,79.578587 C47.8312001,80.653397 47.3398578,81.190807 46.2910278,81.385687 L12.5443278,81.271119 C10.7561278,81.2226934 10.6592778,80.876628 10.8281678,79.074249 L12.9069278,40.716449 L11.4506178,30.068749 C11.3372308,28.499049 11.0596698,26.898649 10.7797468,25.282889 C10.3391918,22.744679 9.8939128,20.169859 10.0710798,17.651729 L10.0710798,17.651729 C10.2033648,16.106839 10.6935258,14.719029 11.5545598,13.491849 C12.4144088,12.263489 13.6463098,11.194589 15.2585298,10.288679 L24.1062398,6.474869 C25.7361698,8.397719 28.4680898,9.464259 30.2610098,9.868199 C32.0669298,9.498511 34.8094698,8.235899 36.3732598,6.296519 L36.37324,6.296519 Z M39.15003,7.270987 C39.583498,6.5198 39.855154,5.415457 40.01106,4.051277 L51.48086,10.502507 L55.58404,13.986787 L59.44864,30.607387 C59.550216,30.927468 59.638799,31.222746 59.71439,31.496764 C56.1498,32.421574 52.71394,33.538904 49.31589,34.808604 C49.202503,34.479074 49.090298,34.115291 48.971005,33.713714 L48.748956,30.124314 C48.880059,28.742414 49.125731,27.332164 49.371402,25.910104 C50.119046,21.599044 50.893852,17.182874 48.552892,13.209604 C47.874934,12.060384 46.478862,10.475334 45.130032,9.848164 L39.15003,7.270974 L39.15003,7.270987 Z M59.76633,31.693987 C60.557675,34.768417 59.414359,34.963307 55.40567,36.271977 C51.20091,37.643247 50.20524,37.244032 49.38436,35.001097 C52.77887,33.732587 56.20646,32.617617 59.76636,31.693987 L59.76633,31.693987 Z M11.22023,35.192437 C10.861172,38.883407 8.30761,37.689307 4.64026,37.121197 C1.11582,36.13615 -0.70781,36.31686 0.25243,32.738087 C3.99419,33.359352 7.61666,34.194397 11.22023,35.192437 L11.22023,35.192437 Z" id="Shape" fill="#FF7700"></path>
    </g>
</svg>