<svg xmlns="http://www.w3.org/2000/svg" xmlns:xlink="http://www.w3.org/1999/xlink" version="1.1" x="0px" y="0px" viewBox="0 0 100 100" enable-background="new 0 0 100 100" xml:space="preserve"><g><path fill="#000000" d="M66.4,17.9H15.6c-0.7,0-1.2,0.6-1.2,1.2v12.4c0,0.7,0.6,1.2,1.2,1.2h6.3h6.4h6.4H41h6.4h6.4h6.4h6.3   c0.7,0,1.2-0.6,1.2-1.2V19.1C67.6,18.4,67.1,17.9,66.4,17.9z M65.1,30.3h-3.8v-3.8c0-0.7-0.6-1.2-1.2-1.2c-0.7,0-1.2,0.6-1.2,1.2   v3.8H55v-3.8c0-0.7-0.6-1.2-1.2-1.2s-1.2,0.6-1.2,1.2v3.8h-3.9v-3.8c0-0.7-0.6-1.2-1.2-1.2c-0.7,0-1.2,0.6-1.2,1.2v3.8h-3.9v-3.8   c0-0.7-0.6-1.2-1.2-1.2c-0.7,0-1.2,0.6-1.2,1.2v3.8h-3.9v-3.8c0-0.7-0.6-1.2-1.2-1.2c-0.7,0-1.2,0.6-1.2,1.2v3.8h-3.9v-3.8   c0-0.7-0.6-1.2-1.2-1.2c-0.7,0-1.2,0.6-1.2,1.2v3.8h-3.9v-3.8c0-0.7-0.6-1.2-1.2-1.2c-0.7,0-1.2,0.6-1.2,1.2v3.8h-3.8v-9.9h48.3   V30.3z"></path><path fill="#000000" d="M66.4,37.8H15.6c-0.7,0-1.2,0.6-1.2,1.2v41.8c0,0.7,0.6,1.2,1.2,1.2h50.8c0.7,0,1.2-0.6,1.2-1.2V39.1   C67.6,38.4,67.1,37.8,66.4,37.8z M65.1,79.6H55V68.2h10.2V79.6z M65.1,51.8H55V40.3h10.2V51.8z M65.1,65.7H55V54.3h10.2V65.7z    M29.6,54.3h10.2v11.4H29.6V54.3z M42.3,54.3h10.2v11.4H42.3V54.3z M16.8,54.3h10.3v11.4H16.8V54.3z M52.5,51.8H42.3V40.3h10.2   V51.8z M39.8,51.8H29.6V40.3h10.2V51.8z M27.1,51.8H16.8V40.3h10.3V51.8z M16.8,68.2h10.3v11.4H16.8V68.2z M29.6,68.2h10.2v11.4   H29.6V68.2z M42.3,68.2h10.2v11.4H42.3V68.2z"></path><path fill="#000000" d="M87.7,43c0-0.1,0-0.2,0-0.3c0-0.3-0.1-0.5-0.2-0.7l-5.6-11.6v-2.9c0-0.7-0.6-1.2-1.2-1.2   c-0.7,0-1.2,0.6-1.2,1.2v2.9l-5.7,11.7c-0.1,0.2-0.1,0.4-0.1,0.5V71v5.1c0,3.3,2.7,6,6,6h2.1c3.3,0,6-2.7,6-6v-4.9   c0-0.1,0-0.1,0-0.2c0-0.1,0-0.1,0-0.2V43z M85.2,76.1c0,1.9-1.6,3.5-3.5,3.5h-2.1c-1.9,0-3.5-1.6-3.5-3.5v-2.3   c1.3,0.5,3,0.8,4.6,0.8c1.6,0,3.2-0.2,4.5-0.8V76.1z M80.6,33.5l4.4,9.2c-0.5,0.4-2,1-4.4,1c-2.6,0-4.1-0.7-4.5-1L80.6,33.5z    M80.6,46.3c1.6,0,3.2-0.2,4.5-0.8V71c0,0,0,0-0.1,0.1c-0.4,0.4-1.9,1.1-4.5,1.1c-2.8,0-4.4-0.8-4.6-1.1V45.5   C77.4,46,79,46.3,80.6,46.3z"></path></g></svg>